<svg width="20" height="15" viewBox="0 0 20 15" fill="none" xmlns="http://www.w3.org/2000/svg">
<path d="M10.0644 0.475098H10.1756C11.2032 0.478848 16.4098 0.51635 17.8136 0.893874C18.238 1.00909 18.6247 1.23367 18.9351 1.54517C19.2455 1.85668 19.4688 2.24419 19.5825 2.66898C19.7087 3.14401 19.7975 3.7728 19.8575 4.42159L19.87 4.5516L19.8975 4.87662L19.9075 5.00663C19.9888 6.1492 19.9988 7.21927 20 7.45303V7.54679C19.9988 7.78931 19.9875 8.93188 19.8975 10.122L19.8875 10.2532L19.8762 10.3832C19.8137 11.0983 19.7212 11.8083 19.5825 12.3308C19.4688 12.7556 19.2455 13.1431 18.9351 13.4547C18.6247 13.7662 18.238 13.9907 17.8136 14.106C16.3635 14.496 10.8519 14.5235 10.0881 14.5247H9.91062C9.52435 14.5247 7.92675 14.5172 6.25164 14.4597L6.03913 14.4522L5.93037 14.4472L5.71661 14.4385L5.50284 14.4297C4.11526 14.3685 2.79392 14.2697 2.18514 14.1047C1.76089 13.9896 1.37427 13.7652 1.06388 13.4539C0.753488 13.1427 0.530187 12.7554 0.416276 12.3308C0.277517 11.8096 0.185012 11.0983 0.122508 10.3832L0.112507 10.252L0.102506 10.122C0.0404568 9.27492 0.00626954 8.42607 0 7.57679L0 7.42303C0.00250016 7.15427 0.0125008 6.22546 0.080005 5.20039L0.0887556 5.07164L0.0925058 5.00663L0.102506 4.87662L0.130008 4.5516L0.142509 4.42159C0.202513 3.7728 0.291268 3.14276 0.417526 2.66898C0.531246 2.24419 0.754462 1.85668 1.06487 1.54517C1.37527 1.23367 1.76199 1.00909 2.18639 0.893874C2.79517 0.731364 4.11651 0.631357 5.50409 0.568853L5.71661 0.560103L5.93162 0.552603L6.03913 0.548852L6.25289 0.540102C7.4426 0.501854 8.6328 0.4806 9.82311 0.476348L10.0644 0.475098ZM8.0005 4.48785V10.5107L13.1971 7.50054L8.0005 4.48785Z" fill="white"/>
</svg>
