<svg width="22" height="22" viewBox="0 0 22 22" fill="none" xmlns="http://www.w3.org/2000/svg">
<path d="M15.4 15.4V19.8C15.4 21.01 14.41 22 13.2 22L2.2 22C1.61652 22 1.05695 21.7682 0.644365 21.3556C0.231785 20.9431 0 20.3835 0 19.8V8.8C0 8.21652 0.231785 7.65695 0.644365 7.24436C1.05695 6.83179 1.61652 6.6 2.2 6.6H6.6V2.2C6.6 1.61652 6.83179 1.05695 7.24436 0.644365C7.65695 0.231785 8.21652 0 8.8 0H19.8C20.3835 0 20.9431 0.231785 21.3556 0.644365C21.7682 1.05695 22 1.61652 22 2.2L22 13.2C22 14.41 21.01 15.4 19.8 15.4H15.4ZM13.2 15.4L8.8 15.4C8.21652 15.4 7.65695 15.1682 7.24436 14.7556C6.83179 14.3431 6.6 13.7835 6.6 13.2V8.8H2.2V19.8L13.2 19.8V15.4ZM19.8 13.2L19.8 2.2H8.8V13.2L19.8 13.2Z" fill="white"/>
</svg>
