<svg width="20" height="21" viewBox="0 0 20 21" fill="none" xmlns="http://www.w3.org/2000/svg">
<path d="M19.9805 5.18C19.9794 4.82015 19.9466 4.46109 19.8824 4.107C19.8104 3.67363 19.6734 3.25358 19.4761 2.861C19.2602 2.44864 18.979 2.07381 18.6435 1.751C18.1368 1.25545 17.5109 0.898653 16.8261 0.715C16.1974 0.562646 15.5513 0.49372 14.9046 0.51L14.9016 0.5H5.095V0.51C4.72709 0.507359 4.3593 0.524048 3.99314 0.56C3.59199 0.602501 3.19708 0.691086 2.81623 0.824C2.18868 1.06034 1.62574 1.44122 1.17311 1.93571C0.72049 2.43021 0.39094 3.02438 0.211217 3.67C0.059803 4.29331 -0.00917127 4.93377 0.00605842 5.575L5.37261e-05 15.413C-0.00145086 15.8589 0.0286478 16.3043 0.0901236 16.746C0.157355 17.2126 0.295733 17.6662 0.500441 18.091C0.788614 18.6585 1.19911 19.1551 1.70237 19.545C2.0622 19.8311 2.46977 20.0515 2.9063 20.196C3.54665 20.3936 4.21366 20.4914 4.88383 20.486C5.30416 20.489 5.72348 20.5 6.14281 20.498C9.19217 20.485 12.2415 20.52 15.2899 20.479C15.6931 20.4704 16.0948 20.4279 16.4908 20.352C17.2385 20.2202 17.9344 19.8818 18.4994 19.375C19.1649 18.7967 19.6296 18.0221 19.8264 17.163C19.9478 16.5877 20.0059 16.0009 19.9995 15.413V15.296C19.9995 15.25 19.9825 5.312 19.9805 5.181M17.3024 14.431C17.1743 14.731 16.5278 14.979 15.433 15.148C15.3309 15.164 15.2869 15.33 15.2278 15.602C15.2038 15.714 15.1778 15.824 15.1448 15.939C15.1347 15.9877 15.1072 16.031 15.0674 16.0608C15.0275 16.0907 14.9782 16.105 14.9286 16.101H14.9106C14.8062 16.097 14.7024 16.0836 14.6004 16.061C14.3301 16.0048 14.0548 15.976 13.7787 15.975C13.5802 15.9755 13.3821 15.9922 13.1863 16.025C12.7733 16.1296 12.3891 16.3258 12.0624 16.599C11.51 17.0699 10.8162 17.343 10.0909 17.375C10.0535 17.3749 10.0161 17.3739 9.97878 17.372C9.95448 17.374 9.93011 17.375 9.90572 17.375C9.18033 17.3433 8.48638 17.0701 7.9342 16.599C7.60736 16.3259 7.22327 16.1297 6.81033 16.025C6.61454 15.9922 6.41639 15.9755 6.21787 15.975C5.94186 15.978 5.66689 16.0091 5.39723 16.068C5.29495 16.0916 5.19081 16.1063 5.08599 16.112C5.03317 16.1182 4.97994 16.1045 4.93666 16.0736C4.89337 16.0428 4.86313 15.9969 4.85181 15.945C4.81927 15.8329 4.79156 15.7195 4.76874 15.605C4.7087 15.332 4.66567 15.165 4.56359 15.149C3.46874 14.981 2.82224 14.732 2.69314 14.431C2.67991 14.4009 2.67212 14.3688 2.67012 14.336C2.66781 14.2928 2.68155 14.2502 2.70869 14.2164C2.73583 14.1827 2.77448 14.1601 2.81723 14.153C3.72266 13.9893 4.53855 13.5046 5.11501 12.788C5.43166 12.4208 5.6948 12.0108 5.89662 11.57L5.90062 11.562C5.96036 11.4644 5.99803 11.355 6.01099 11.2413C6.02396 11.1276 6.01191 11.0125 5.97568 10.904C5.83557 10.572 5.36821 10.424 5.05897 10.326C4.98916 10.305 4.92006 10.2816 4.85181 10.256C4.5776 10.148 4.12725 9.919 4.18729 9.604C4.23313 9.48526 4.315 9.38381 4.42142 9.31388C4.52783 9.24394 4.65348 9.20902 4.78075 9.214C4.84272 9.21258 4.90424 9.22487 4.96089 9.25C5.19139 9.36803 5.4447 9.43489 5.70347 9.446C5.85758 9.45705 6.01028 9.41035 6.1318 9.315C6.12379 9.169 6.11479 9.023 6.10478 8.877C5.96425 7.89145 6.0245 6.8877 6.28192 5.926C6.58447 5.2354 7.08391 4.64915 7.71789 4.24047C8.35186 3.83178 9.09227 3.61876 9.84668 3.628L10.1419 3.626C10.8972 3.61636 11.6385 3.82914 12.2735 4.2378C12.9085 4.64647 13.4091 5.23292 13.7127 5.924C13.97 6.88708 14.0299 7.8922 13.8888 8.879L13.8858 8.926L13.8628 9.315C13.9731 9.40231 14.1104 9.4483 14.2511 9.445C14.4952 9.42665 14.7332 9.36039 14.9516 9.25C15.0236 9.21865 15.1013 9.20297 15.1798 9.204C15.2693 9.2037 15.358 9.22068 15.441 9.254L15.445 9.256C15.5389 9.27834 15.624 9.32814 15.6894 9.39903C15.7548 9.46992 15.7976 9.55869 15.8123 9.654C15.8153 9.807 15.7022 10.035 15.1428 10.256C15.0857 10.278 15.0127 10.302 14.9356 10.326C14.6254 10.424 14.159 10.572 14.0189 10.904C13.9826 11.0123 13.9704 11.1272 13.9832 11.2407C13.996 11.3542 14.0335 11.4635 14.093 11.561L14.097 11.57C14.3767 12.2086 14.8003 12.7739 15.3349 13.2218C15.8694 13.6697 16.5003 13.9881 17.1784 14.152C17.2209 14.1593 17.2593 14.182 17.2863 14.2157C17.3132 14.2494 17.3268 14.2919 17.3245 14.335C17.3225 14.3681 17.3147 14.4006 17.3014 14.431" fill="white"/>
</svg>
