<svg width="16" height="16" viewBox="0 0 16 16" fill="none" xmlns="http://www.w3.org/2000/svg">
<path d="M11.2 11.2V14.4C11.2 15.28 10.48 16 9.6 16L1.6 16C1.17565 16 0.768687 15.8314 0.468629 15.5314C0.168571 15.2313 -2.38419e-07 14.8243 -2.38419e-07 14.4V6.4C-2.38419e-07 5.97565 0.168571 5.56869 0.468629 5.26863C0.768687 4.96857 1.17565 4.8 1.6 4.8H4.8V1.6C4.8 1.17565 4.96857 0.768687 5.26863 0.468629C5.56869 0.168571 5.97565 -2.38419e-07 6.4 -2.38419e-07H14.4C14.8243 -2.38419e-07 15.2313 0.168571 15.5314 0.468629C15.8314 0.768687 16 1.17565 16 1.6V9.6C16 10.48 15.28 11.2 14.4 11.2H11.2ZM9.6 11.2H6.4C5.97565 11.2 5.56869 11.0314 5.26863 10.7314C4.96857 10.4313 4.8 10.0243 4.8 9.6L4.8 6.4H1.6L1.6 14.4L9.6 14.4V11.2ZM14.4 9.6L14.4 1.6L6.4 1.6L6.4 9.6H14.4Z" fill="white"/>
</svg>
