<svg width="22" height="22" viewBox="0 0 22 22" fill="none" xmlns="http://www.w3.org/2000/svg">
<path d="M5.3125 3.125C4.105 3.125 3.125 4.105 3.125 5.3125V16.6875C3.125 17.895 4.105 18.875 5.3125 18.875H16.6875C17.895 18.875 18.875 17.895 18.875 16.6875V14.0625C18.875 13.7144 19.0133 13.3806 19.2594 13.1344C19.5056 12.8883 19.8394 12.75 20.1875 12.75C20.5356 12.75 20.8694 12.8883 21.1156 13.1344C21.3617 13.3806 21.5 13.7144 21.5 14.0625V16.6875C21.5 17.9639 20.993 19.1879 20.0905 20.0905C19.1879 20.993 17.9639 21.5 16.6875 21.5H5.3125C4.03615 21.5 2.81207 20.993 1.90955 20.0905C1.00703 19.1879 0.5 17.9639 0.5 16.6875V5.3125C0.5 4.03615 1.00703 2.81207 1.90955 1.90955C2.81207 1.00703 4.03615 0.5 5.3125 0.5H7.9375C8.2856 0.5 8.61944 0.638281 8.86558 0.884422C9.11172 1.13056 9.25 1.4644 9.25 1.8125C9.25 2.1606 9.11172 2.49444 8.86558 2.74058C8.61944 2.98672 8.2856 3.125 7.9375 3.125H5.3125ZM11 1.8125C11 1.4644 11.1383 1.13056 11.3844 0.884422C11.6306 0.638281 11.9644 0.5 12.3125 0.5H20.1875C20.5356 0.5 20.8694 0.638281 21.1156 0.884422C21.3617 1.13056 21.5 1.4644 21.5 1.8125V9.6875C21.5 10.0356 21.3617 10.3694 21.1156 10.6156C20.8694 10.8617 20.5356 11 20.1875 11C19.8394 11 19.5056 10.8617 19.2594 10.6156C19.0133 10.3694 18.875 10.0356 18.875 9.6875V4.98175L13.24 10.6168C13.1189 10.742 12.974 10.842 12.8138 10.9107C12.6537 10.9794 12.4814 11.0155 12.3072 11.0169C12.1329 11.0184 11.9601 10.9851 11.7988 10.919C11.6375 10.8529 11.491 10.7554 11.3679 10.6321C11.2447 10.5088 11.1473 10.3623 11.0814 10.2009C11.0155 10.0396 10.9823 9.86674 10.9839 9.69247C10.9855 9.5182 11.0218 9.34599 11.0907 9.18589C11.1595 9.0258 11.2596 8.88101 11.385 8.76L17.02 3.125H12.3125C11.9644 3.125 11.6306 2.98672 11.3844 2.74058C11.1383 2.49444 11 2.1606 11 1.8125Z" fill="white"/>
</svg>
